<?xml version="1.0" encoding="iso-8859-1"?>
<!-- Generator: Adobe Illustrator 19.0.0, SVG Export Plug-In . SVG Version: 6.00 Build 0)  -->
<svg version="1.1" id="Layer_1" xmlns="http://www.w3.org/2000/svg" xmlns:xlink="http://www.w3.org/1999/xlink" x="0px" y="0px"
	 viewBox="0 0 511.999 511.999" style="enable-background:new 0 0 511.999 511.999;" xml:space="preserve">
<path style="fill:#A9603A;" d="M163.059,183.414v-18.092c-34.663,0-62.863,28.2-62.863,62.863s28.2,62.863,62.863,62.863v-18.092
	c-24.687,0-44.771-20.084-44.771-44.771S138.372,183.414,163.059,183.414z"/>
<g>
	<path style="fill:#460929;" d="M204.774,0c-4.996,0-9.046,4.049-9.046,9.046v21.947h18.092V9.046C213.82,4.049,209.77,0,204.774,0z
		"/>
	<path style="fill:#460929;" d="M175.792,6.165c-4.564,2.032-6.617,7.379-4.584,11.943l8.927,20.049l16.528-7.359l-8.927-20.049
		C185.703,6.185,180.356,4.132,175.792,6.165z"/>
	<path style="fill:#460929;" d="M151.823,23.583c-3.343,3.712-3.043,9.432,0.669,12.775l16.309,14.686L180.907,37.6l-16.309-14.686
		C160.886,19.571,155.166,19.871,151.823,23.583z"/>
	<path style="fill:#460929;" d="M257.731,23.569c-3.343-3.712-9.063-4.013-12.775-0.669l-16.309,14.686l12.106,13.445l16.309-14.686
		C260.774,33.002,261.074,27.283,257.731,23.569z"/>
	<path style="fill:#460929;" d="M233.757,6.156c-4.564-2.032-9.911,0.021-11.943,4.584l-8.927,20.049l16.528,7.359l8.927-20.049
		C240.374,13.535,238.321,8.188,233.757,6.156z"/>
</g>
<g>
	<path style="fill:#A9603A;" d="M257.108,71.266c0,28.905-23.429,52.316-52.335,52.316c-28.885,0-52.316-23.41-52.316-52.316
		s23.429-52.335,52.316-52.335C233.679,18.931,257.108,42.362,257.108,71.266z"/>
	<path style="fill:#A9603A;" d="M363.431,72.285c-4.99-0.542-9.433,3.044-9.976,8.01c-2.789,25.517-15.348,48.42-35.362,64.489
		s-45.086,23.389-70.607,20.595h-36.184v18.668l46.845,0.008c25.879,0,50.803-8.728,71.272-25.163
		c23.784-19.095,38.707-46.31,42.021-76.629C371.983,77.295,368.397,72.828,363.431,72.285z"/>
	<path style="fill:#A9603A;" d="M186.819,490.582l-9.805-186.746l-18.067,0.949l9.443,179.843l0.345,0.111l-26.228,9.62
		c-4.745,1.564-7.322,6.68-5.758,11.424c1.564,4.746,6.68,7.321,11.424,5.758l32.432-11.895
		C184.568,498.341,187.01,494.552,186.819,490.582z"/>
	<path style="fill:#A9603A;" d="M222.748,490.582l9.805-186.746l18.067,0.949l-9.443,179.843l-0.345,0.111l26.228,9.62
		c4.745,1.564,7.322,6.68,5.758,11.424c-1.564,4.746-6.68,7.321-11.424,5.758l-32.431-11.895
		C224.998,498.341,222.557,494.552,222.748,490.582z"/>
	<path style="fill:#A9603A;" d="M235.238,154.054h-60.909c-11.174,0-20.315,9.141-20.315,20.315v107.635l50.769,24.122
		l50.769-24.122V174.368C255.553,163.195,246.411,154.054,235.238,154.054z"/>
</g>
<polygon style="fill:#FFB13A;" points="154.013,282.004 154.013,369.677 226.075,369.677 238.137,325.841 226.075,282.004 "/>
<rect x="226.075" y="282.004" style="fill:#FFD089;" width="29.478" height="87.673"/>
<path style="fill:#FF5700;" d="M204.784,244.843c-15.647,0-28.375-12.729-28.375-28.375v-66.032c0-4.997,4.05-9.046,9.046-9.046
	c4.996,0,9.046,4.049,9.046,9.046v66.032c0,5.67,4.613,10.283,10.283,10.283s10.285-4.613,10.285-10.283v-66.032
	c0-4.997,4.05-9.046,9.046-9.046c4.996,0,9.046,4.049,9.046,9.046v66.032C233.159,232.114,220.43,244.843,204.784,244.843z"/>
<path style="fill:#F7D0BC;" d="M400.345,320.524H297.137c3.377-14.606,7.767-27.634,12.918-38.519h77.373
	C392.589,292.891,396.968,305.918,400.345,320.524z"/>
<path style="fill:#EDA27A;" d="M400.345,320.524c4.873,21.06,7.659,45.408,7.659,71.346c0,43.922-7.972,83.283-20.576,109.878
	h-77.373c-12.604-26.595-20.577-65.956-20.577-109.878c0-25.938,2.786-50.285,7.659-71.346H400.345z"/>
<path style="fill:#EDB99E;" d="M402.757,329.576H294.724c-4.996,0-9.046-4.049-9.046-9.046s4.05-9.046,9.046-9.046h108.033
	c4.996,0,9.046,4.049,9.046,9.046S407.753,329.576,402.757,329.576z"/>
<g>
</g>
<g>
</g>
<g>
</g>
<g>
</g>
<g>
</g>
<g>
</g>
<g>
</g>
<g>
</g>
<g>
</g>
<g>
</g>
<g>
</g>
<g>
</g>
<g>
</g>
<g>
</g>
<g>
</g>
</svg>
