<?xml version="1.0" encoding="iso-8859-1"?>
<!-- Generator: Adobe Illustrator 19.0.0, SVG Export Plug-In . SVG Version: 6.00 Build 0)  -->
<svg version="1.1" id="Layer_1" xmlns="http://www.w3.org/2000/svg" xmlns:xlink="http://www.w3.org/1999/xlink" x="0px" y="0px"
	 viewBox="0 0 512 512" style="enable-background:new 0 0 512 512;" xml:space="preserve">
<g>
	<g>
		<path d="M443.933,470.182h-59.692v-18.846h49.396c3.122,0,6.082-1.394,8.07-3.799c1.988-2.406,2.801-5.575,2.212-8.642
			l-59.775-311.752c-0.945-4.932-5.26-8.498-10.282-8.498c-5.022,0-9.337,3.566-10.282,8.498l-39.076,203.812L266.681,29.377
			c-0.945-4.932-5.26-8.498-10.282-8.498s-9.337,3.566-10.282,8.498l-52.099,271.722l-26.143-136.352
			c-0.945-4.932-5.26-8.498-10.282-8.498c-5.022,0-9.337,3.566-10.282,8.498L94.745,438.895c-0.588,3.067,0.224,6.236,2.212,8.642
			s4.948,3.799,8.07,3.799h41.549v18.846h-72.78c-5.781,0-10.47,4.687-10.47,10.47c0,5.782,4.688,10.47,10.47,10.47h370.135
			c5.781,0,10.47-4.687,10.47-10.47C454.402,474.869,449.714,470.182,443.933,470.182z M373.862,184.714l47.107,245.683H343.57
			l-2.264-11.807l-6.142-32.035L373.862,184.714z M256.398,86.949l65.851,343.448H190.548L256.398,86.949z M117.696,430.398
			l39.896-208.078L183.356,356.7l-9.01,46.999l-5.12,26.699H117.696z M246.04,470.182h-78.523v-18.846h10.363h68.16V470.182z
			 M363.301,470.182h-96.322v-18.846h67.937h28.385V470.182z"/>
	</g>
</g>
<g>
	<g>
		<path d="M38.2,470.182H10.47c-5.781,0-10.47,4.687-10.47,10.47c0,5.782,4.688,10.47,10.47,10.47H38.2
			c5.781,0,10.47-4.687,10.47-10.47C48.67,474.869,43.982,470.182,38.2,470.182z"/>
	</g>
</g>
<g>
	<g>
		<path d="M501.53,470.182h-22.001c-5.781,0-10.47,4.687-10.47,10.47c0,5.782,4.688,10.47,10.47,10.47h22.001
			c5.781,0,10.47-4.687,10.47-10.47C512,474.869,507.313,470.182,501.53,470.182z"/>
	</g>
</g>
<g>
	<g>
		<path d="M202.217,67.479h-28.733c-5.781,0-10.47,4.687-10.47,10.47s4.688,10.47,10.47,10.47h28.733
			c5.781,0,10.47-4.687,10.47-10.47S207.999,67.479,202.217,67.479z"/>
	</g>
</g>
<g>
	<g>
		<path d="M137.887,67.479H10.512c-5.781,0-10.47,4.687-10.47,10.47s4.688,10.47,10.47,10.47h127.375
			c5.781,0,10.47-4.687,10.47-10.47S143.668,67.479,137.887,67.479z"/>
	</g>
</g>
<g>
	<g>
		<path d="M119.02,112.78H62.121c-5.781,0-10.47,4.687-10.47,10.47s4.688,10.47,10.47,10.47h56.899c5.781,0,10.47-4.687,10.47-10.47
			S124.802,112.78,119.02,112.78z"/>
	</g>
</g>
<g>
	<g>
		<path d="M26.524,112.78H10.512c-5.781,0-10.47,4.687-10.47,10.47s4.688,10.47,10.47,10.47h16.012c5.781,0,10.47-4.687,10.47-10.47
			S32.306,112.78,26.524,112.78z"/>
	</g>
</g>
<g>
	<g>
		<path d="M242.913,283.681c-5.681-1.085-11.165,2.633-12.254,8.311l-19.448,101.436c-1.091,5.679,2.631,11.165,8.31,12.254
			c0.666,0.128,1.33,0.19,1.983,0.19c4.922,0,9.311-3.487,10.272-8.5l19.448-101.436
			C252.313,290.256,248.591,284.769,242.913,283.681z"/>
	</g>
</g>
<g>
	<g>
		<path d="M250.702,243.077c-5.68-1.088-11.166,2.631-12.255,8.309l-1.067,5.56c-1.09,5.679,2.629,11.166,8.308,12.256
			c0.667,0.128,1.331,0.19,1.985,0.19c4.921,0,9.31-3.486,10.271-8.498l1.067-5.56C260.1,249.654,256.381,244.167,250.702,243.077z"
			/>
	</g>
</g>
<g>
</g>
<g>
</g>
<g>
</g>
<g>
</g>
<g>
</g>
<g>
</g>
<g>
</g>
<g>
</g>
<g>
</g>
<g>
</g>
<g>
</g>
<g>
</g>
<g>
</g>
<g>
</g>
<g>
</g>
</svg>
