<?xml version="1.0" encoding="iso-8859-1"?>
<!-- Generator: Adobe Illustrator 19.0.0, SVG Export Plug-In . SVG Version: 6.00 Build 0)  -->
<svg version="1.1" id="Capa_1" xmlns="http://www.w3.org/2000/svg" xmlns:xlink="http://www.w3.org/1999/xlink" x="0px" y="0px"
	 viewBox="0 0 460 460" style="enable-background:new 0 0 460 460;" xml:space="preserve">
<g id="XMLID_464_">
	<path id="XMLID_466_" style="fill:#B39A7C;" d="M250,390c0,38.599,31.402,70,70,70h70v-40h-70c-16.542,0-30-13.458-30-30V230h-40
		V390z"/>
	<path id="XMLID_467_" style="fill:#B39A7C;" d="M170,230v160c0,16.542-13.458,30-30,30H70v40h70c38.598,0,70-31.401,70-70V230H170z
		"/>
	<rect id="XMLID_468_" x="210" y="230" style="fill:#D9CCBC;" width="40" height="230"/>
	<path id="XMLID_469_" style="fill:#00AA95;" d="M386.69,103.94C360.9,42.86,300.46,0,230,0v230h105v120h40V230h45v80h40v-80
		C460,175.99,430.47,128.89,386.69,103.94z"/>
	<path id="XMLID_470_" style="fill:#00CCB3;" d="M73.31,103.94C29.53,128.89,0,175.99,0,230v80h40v-80h45v120h40V230h105V0
		C159.54,0,99.1,42.86,73.31,103.94z"/>
</g>
<g>
</g>
<g>
</g>
<g>
</g>
<g>
</g>
<g>
</g>
<g>
</g>
<g>
</g>
<g>
</g>
<g>
</g>
<g>
</g>
<g>
</g>
<g>
</g>
<g>
</g>
<g>
</g>
<g>
</g>
</svg>
